<svg xmlns="http://www.w3.org/2000/svg"
	xmlns:xlink="http://www.w3.org/1999/xlink" aria-hidden="true" role="img" width="600" height="600" preserveAspectRatio="xMidYMid meet" viewBox="0 0 1024 1024">
	<defs>
		<linearGradient id="bgc" x1="-.828%" x2="57.636%" y1="7.652%" y2="78.411%">
			<stop offset="0%" stop-color="#41D1FF"></stop>
			<stop offset="100%" stop-color="#BD34FE"></stop>
		</linearGradient>
	</defs>
	<path d="M363.605333 699.264C408.064 688.170667 457.557333 682.666667 512 682.666667c54.442667 0 103.936 5.504 148.394667 16.597333l-17.322667-43.434667a42.666667 42.666667 0 0 1 79.189333-31.658666l53.674667 134.101333a83.370667 83.370667 0 0 0 79.872 52.309333 37.162667 37.162667 0 0 0 34.602667-39.552l-29.013334-435.370666A85.333333 85.333333 0 0 0 776.234667 256H247.765333A85.333333 85.333333 0 0 0 162.56 335.658667l-29.013333 435.370666A37.162667 37.162667 0 0 0 170.666667 810.666667c34.090667 0 64.768-20.736 77.397333-52.394667l53.674667-134.101333a42.666667 42.666667 0 0 1 79.189333 31.658666l-17.322667 43.434667z m-43.093333 105.514667A168.704 168.704 0 0 1 170.666667 896a122.496 122.496 0 0 1-122.24-130.645333l29.013333-435.370667A170.666667 170.666667 0 0 1 247.808 170.666667h528.469333a170.666667 170.666667 0 0 1 170.282667 159.317333l29.013333 435.370667A122.496 122.496 0 0 1 853.333333 896a168.704 168.704 0 0 1-149.845333-91.221333C653.44 780.458667 589.653333 768 512 768c-77.653333 0-141.44 12.458667-191.488 36.778667zM362.666667 512a64 64 0 1 1 0-128 64 64 0 0 1 0 128z m298.666666 0a64 64 0 1 1 0-128 64 64 0 0 1 0 128z" fill="url(#bgc)" p-id="2752"></path>
</svg>